<?xml version="1.0" encoding="UTF-8"?>
<svg version="1.1" xmlns="http://www.w3.org/2000/svg" width="280" height="280">
<path d="M0 0 C92.4 0 184.8 0 280 0 C280 92.4 280 184.8 280 280 C187.6 280 95.2 280 0 280 C0 187.6 0 95.2 0 0 Z " fill="#000000" transform="translate(0,0)"/>
<path d="M0 0 C0.75797379 -0.0065712 1.51594757 -0.0131424 2.29689026 -0.01991272 C4.8123484 -0.03966584 7.32774664 -0.05131546 9.84326172 -0.0612793 C11.13289133 -0.06739259 11.13289133 -0.06739259 12.44857407 -0.07362938 C17.00298574 -0.09450308 21.55736722 -0.10879667 26.11181641 -0.11816406 C30.80594593 -0.12920478 35.49959831 -0.16357366 40.19355965 -0.20333576 C43.81052501 -0.22954956 47.42737779 -0.23786033 51.04442978 -0.24144554 C52.77390626 -0.24630266 54.50337801 -0.25789166 56.23276138 -0.27648354 C58.66206206 -0.3009672 61.09014364 -0.29989317 63.51953125 -0.29296875 C64.2263353 -0.30577881 64.93313934 -0.31858887 65.66136169 -0.33178711 C72.43417015 -0.26188909 77.40244201 2.23152736 82.42529297 6.58325195 C84.65371022 9.18372481 86.44730797 11.7423776 88.21044922 14.67700195 C88.88849609 15.80493164 89.56654297 16.93286133 90.26513672 18.0949707 C93.68465346 23.91759045 97.02557848 29.78650125 100.34741211 35.6652832 C102.99408878 40.33997862 105.71479269 44.94195451 108.5871582 49.48144531 C110.28827687 52.20049459 111.79587559 55.01250969 113.31201172 57.8371582 C114.63025538 60.22626379 114.63025538 60.22626379 116.29638672 62.5480957 C119.95748479 67.91942504 121.78885525 72.3131464 121.40576172 78.8840332 C119.95940663 85.16896793 116.47686462 90.35260945 113.11181641 95.76782227 C110.30333745 100.38991539 107.71997504 105.14190725 105.08544922 109.86450195 C100.96586103 117.180743 96.75692672 124.40607964 92.28466797 131.51293945 C90.74151161 134.02471185 89.33913829 136.57234013 87.96044922 139.17700195 C84.3409465 145.77656192 78.86126554 150.77256318 71.64794922 153.17700195 C69.13985329 153.28311375 66.65913188 153.33423197 64.15063477 153.33813477 C63.38930237 153.34309967 62.62796997 153.34806458 61.84356689 153.35317993 C59.32392473 153.36778912 56.80434554 153.37460175 54.28466797 153.38012695 C52.53212991 153.38587977 50.77959186 153.39163749 49.02705383 153.3973999 C45.35095934 153.40790659 41.67488669 153.41375132 37.9987793 153.41723633 C33.29448057 153.42271801 28.59047173 153.4467404 23.88626385 153.47520828 C20.26509261 153.49385762 16.64399085 153.4990415 13.02277565 153.5005722 C11.28887155 153.50359447 9.55496855 153.5116086 7.82111168 153.52475739 C5.39166775 153.54186487 2.96292745 153.5399263 0.53344727 153.53344727 C-0.17897629 153.54266205 -0.89139984 153.55187683 -1.62541199 153.56137085 C-8.29756314 153.50579723 -12.96793718 150.98862796 -17.94091797 146.64575195 C-20.49946113 143.98274232 -22.19926865 140.89214787 -23.97705078 137.67700195 C-24.6065564 136.57364502 -24.6065564 136.57364502 -25.2487793 135.44799805 C-26.15328638 133.86018495 -27.05262305 132.26941742 -27.94726562 130.67602539 C-29.87099183 127.25383884 -31.8252902 123.84944173 -33.77734375 120.44335938 C-35.29464674 117.79310089 -36.80600404 115.13951404 -38.31689453 112.4855957 C-40.33470567 108.94743573 -42.36854603 105.41931671 -44.41845703 101.8996582 C-44.911604 101.05258301 -45.40475098 100.20550781 -45.9128418 99.33276367 C-46.8396215 97.7433247 -47.76834386 96.15501606 -48.69946289 94.56811523 C-49.93540823 92.44766478 -51.14675548 90.31499024 -52.35205078 88.17700195 C-52.74779297 87.50491699 -53.14353516 86.83283203 -53.55126953 86.14038086 C-56.08083595 81.58161401 -57.51363073 77.42557703 -56.35205078 72.17700195 C-54.92487815 68.83154776 -53.09787386 65.81445355 -51.16455078 62.73950195 C-50.19114773 61.13709079 -49.21848841 59.53422759 -48.24658203 57.9309082 C-47.7597998 57.1380542 -47.27301758 56.3452002 -46.77148438 55.52832031 C-44.52315133 51.80391448 -42.4447251 47.99027585 -40.35205078 44.17700195 C-36.07663584 36.47697607 -31.7450722 28.8105546 -27.35205078 21.17700195 C-26.91248047 20.40904297 -26.47291016 19.64108398 -26.02001953 18.84985352 C-21.60091034 11.21717388 -17.44972946 5.20016155 -9.35205078 1.17700195 C-6.35930968 -0.3193686 -3.28317981 0.01227924 0 0 Z " fill="#18B1A7" transform="translate(107.35205078125,63.822998046875)"/>
<path d="M0 0 C13.09636453 0.94186183 26.17076452 4.35557573 39 7 C39.47411167 12.27951472 37.98291101 15.54208183 35.3125 19.9375 C34.4862414 21.34852657 33.66076913 22.7600138 32.8359375 24.171875 C32.3831543 24.93822266 31.93037109 25.70457031 31.46386719 26.49414062 C29.30126648 30.19609753 27.21601192 33.94044292 25.12182617 37.68139648 C20.45625261 46.00828549 15.7208831 54.25669939 10.63671875 62.3359375 C9.0935624 64.8477099 7.69118907 67.39533818 6.3125 70 C2.69299728 76.59955996 -2.78668368 81.59556123 -10 84 C-12.50809593 84.1061118 -14.98881734 84.15723001 -17.49731445 84.16113281 C-18.63931305 84.16858017 -18.63931305 84.16858017 -19.80438232 84.17617798 C-22.32402449 84.19078717 -24.84360368 84.19759979 -27.36328125 84.203125 C-29.11581931 84.20887782 -30.86835736 84.21463553 -32.62089539 84.22039795 C-36.29698988 84.23090463 -39.97306253 84.23674936 -43.64916992 84.24023438 C-48.35346865 84.24571606 -53.05747749 84.26973845 -57.76168537 84.29820633 C-61.38285661 84.31685567 -65.00395837 84.32203955 -68.62517357 84.32357025 C-70.35907767 84.32659251 -72.09298066 84.33460665 -73.82683754 84.34775543 C-76.25628147 84.36486291 -78.68502177 84.36292435 -81.11450195 84.35644531 C-81.82692551 84.3656601 -82.53934906 84.37487488 -83.27336121 84.3843689 C-89.94551236 84.32879527 -94.6158864 81.81162601 -99.58886719 77.46875 C-102.14741035 74.80574037 -103.84721786 71.71514592 -105.625 68.5 C-106.04467041 67.76442871 -106.46434082 67.02885742 -106.89672852 66.27099609 C-107.8012356 64.683183 -108.70057227 63.09241547 -109.59521484 61.49902344 C-111.51894104 58.07683689 -113.47323942 54.67243978 -115.42529297 51.26635742 C-116.94259596 48.61609894 -118.45395326 45.96251209 -119.96484375 43.30859375 C-121.98265489 39.77043378 -124.01649525 36.24231476 -126.06640625 32.72265625 C-126.55955322 31.87558105 -127.0527002 31.02850586 -127.56079102 30.15576172 C-128.48757072 28.56632274 -129.41629308 26.9780141 -130.34741211 25.39111328 C-138.58934535 11.25083492 -138.58934535 11.25083492 -138 3 C-137.67 3 -137.34 3 -137 3 C-136.67 4.65 -136.34 6.3 -136 8 C-134.9275 8.144375 -133.855 8.28875 -132.75 8.4375 C-129 9 -129 9 -127.0390625 9.5078125 C-124.88807699 10.0270159 -122.82829141 10.24809425 -120.625 10.4375 C-116.83198813 10.82668526 -113.62079694 11.79306769 -110 13 C-107.68452794 13.28793435 -105.37842263 13.49544576 -103.05078125 13.65625 C-101 14 -101 14 -98 16 C-97.67 15.34 -97.34 14.68 -97 14 C-97 14.66 -97 15.32 -97 16 C-96.00742188 16.10957031 -95.01484375 16.21914062 -93.9921875 16.33203125 C-86.06537325 17.24314803 -78.326839 18.43350177 -70.5390625 20.21484375 C-67.9913502 20.78006469 -65.46457066 21.29296383 -62.8984375 21.75390625 C-62.216604 21.87902588 -61.53477051 22.00414551 -60.83227539 22.13305664 C-58.91677427 22.48105594 -56.9994446 22.81894587 -55.08203125 23.15625 C-51.88334723 24.03193536 -50.9517607 24.43243181 -49 27 C-48.60127258 29.25895691 -48.60127258 29.25895691 -48.56762695 31.93041992 C-48.54783279 32.93123093 -48.52803864 33.93204193 -48.50764465 34.96318054 C-48.50125473 36.04138565 -48.49486481 37.11959076 -48.48828125 38.23046875 C-48.47033005 39.33602615 -48.45237885 40.44158356 -48.43388367 41.5806427 C-48.37964573 45.11622285 -48.34584108 48.65166696 -48.3125 52.1875 C-48.27933891 54.58270128 -48.2448504 56.97788457 -48.20898438 59.37304688 C-48.12391154 65.24857594 -48.05561882 71.12412232 -48 77 C-47.01 77 -46.02 77 -45 77 C-44.70867187 76.46632813 -44.41734375 75.93265625 -44.1171875 75.3828125 C-40.10977026 68.0988906 -35.88367667 60.96218038 -31.4375 53.9375 C-29.7730536 51.28996571 -28.20545481 48.61156718 -26.69921875 45.87109375 C-23.9680884 40.93046433 -21.17874549 36.02471337 -18.375 31.125 C-17.86155029 30.22749023 -17.34810059 29.32998047 -16.8190918 28.40527344 C-13.1598641 22.01463568 -9.49283195 15.62850819 -5.8125 9.25 C-5.34312012 8.43418457 -4.87374023 7.61836914 -4.39013672 6.77783203 C-3.74262451 5.65803955 -3.74262451 5.65803955 -3.08203125 4.515625 C-2.70280518 3.85852539 -2.3235791 3.20142578 -1.93286133 2.52441406 C-1 1 -1 1 0 0 Z " fill="#1AAFA7" transform="translate(189,133)"/>
<path d="M0 0 C1.32 0 2.64 0 4 0 C4.33 17.16 4.66 34.32 5 52 C8.980625 52.763125 12.96125 53.52625 17.0625 54.3125 C25.70125768 55.96957959 34.33375707 57.64719307 42.94921875 59.421875 C46.28798041 60.05457247 49.63312969 60.54261384 53 61 C51.59113139 64.79842028 49.82880444 68.15096195 47.75 71.625 C45.40367971 75.58896969 43.12101416 79.56907924 40.9375 83.625 C38.55356841 88.03780954 36.02166194 92.33669165 33.421875 96.625 C31.70964955 99.48498097 30.09281741 102.38937522 28.484375 105.30859375 C26.48067781 108.94161312 24.4622835 112.56619715 22.4375 116.1875 C22.06133545 116.86506348 21.6851709 117.54262695 21.29760742 118.24072266 C19.03084042 122.28940796 16.5790062 126.13953334 14 130 C12.73958711 132.36327417 11.53344541 134.74504422 10.34375 137.14453125 C9 139 9 139 6.90625 139.82421875 C5.96265625 139.91123047 5.96265625 139.91123047 5 140 C3.37720829 138.37720829 3.85065098 136.57046931 3.82641602 134.32836914 C3.81292618 133.33386246 3.79943634 132.33935577 3.78553772 131.31471252 C3.77509933 130.23245895 3.76466095 129.15020538 3.75390625 128.03515625 C3.7209735 125.76887626 3.68776176 123.50260032 3.65429688 121.23632812 C3.60680155 117.64366394 3.56237477 114.05101681 3.52319336 110.45825195 C3.48361543 107.0045444 3.43203929 103.55117803 3.37890625 100.09765625 C3.3704921 99.01742691 3.36207794 97.93719757 3.35340881 96.82423401 C3.32844582 95.32774574 3.32844582 95.32774574 3.30297852 93.80102539 C3.29267105 92.92023819 3.28236359 92.03945099 3.27174377 91.13197327 C3.19368468 88.78566697 3.19368468 88.78566697 1 87 C-1.1271458 86.46155697 -3.27910503 86.01997002 -5.4375 85.625 C-6.79579945 85.36969187 -8.15386164 85.11311912 -9.51171875 84.85546875 C-10.59912354 84.65123291 -10.59912354 84.65123291 -11.70849609 84.44287109 C-15.7342848 83.66482073 -19.74059408 82.79529304 -23.75 81.9375 C-30.48051114 80.50756962 -37.21650217 79.15852997 -44 78 C-43.37357549 75.0627923 -42.43726002 72.70406059 -40.98828125 70.078125 C-40.35660034 68.92884521 -40.35660034 68.92884521 -39.7121582 67.75634766 C-39.250271 66.92925293 -38.78838379 66.1021582 -38.3125 65.25 C-37.83063232 64.38036621 -37.34876465 63.51073242 -36.85229492 62.61474609 C-31.77534034 53.50407985 -26.50498652 44.50661392 -21.2265625 35.51171875 C-18.68035347 31.17169002 -16.17009465 26.81418579 -13.6875 22.4375 C-10.86997447 17.48548544 -7.98807295 12.57617229 -5.0625 7.6875 C-4.47698364 6.70704712 -4.47698364 6.70704712 -3.87963867 5.70678711 C-1.12354633 1.12354633 -1.12354633 1.12354633 0 0 Z " fill="#000101" transform="translate(136,71)"/>
</svg>
