<?xml version="1.0" encoding="UTF-8"?>
<svg version="1.1" xmlns="http://www.w3.org/2000/svg" width="320" height="320">
<path d="M0 0 C0.94650421 -0.0065712 1.89300842 -0.0131424 2.86819458 -0.01991272 C6.01011224 -0.03967261 9.15198203 -0.05131468 12.29394531 -0.0612793 C13.36581337 -0.06535482 14.43768143 -0.06943035 15.54203033 -0.07362938 C21.2158438 -0.09450219 26.88963299 -0.10879833 32.56347656 -0.11816406 C38.42584447 -0.12922743 44.28783269 -0.16362332 50.15006638 -0.20333576 C54.6556672 -0.22947595 59.16117724 -0.23785364 63.66684723 -0.24144554 C65.82779757 -0.24631867 67.98874367 -0.25795322 70.14962006 -0.27648354 C73.17557371 -0.30081788 76.20054105 -0.29992009 79.2265625 -0.29296875 C80.11822113 -0.30577881 81.00987976 -0.31858887 81.92855835 -0.33178711 C87.41266604 -0.28590377 90.51351984 0.53758243 94.87207031 4.17700195 C100.25438132 9.85833024 101.17446066 15.59007545 101.09912109 23.2019043 C101.09941315 23.9830661 101.0997052 24.76422791 101.1000061 25.56906128 C101.09862023 28.13380298 101.08309429 30.69824892 101.06738281 33.26293945 C101.06365004 35.04798219 101.06080431 36.83302699 101.05880737 38.61807251 C101.05119175 43.30342318 101.03156111 47.98864876 101.00939941 52.6739502 C100.98889631 57.46010649 100.97979612 62.2462831 100.96972656 67.0324707 C100.94831321 76.41403591 100.91420234 85.79550851 100.87207031 95.17700195 C102.79980286 95.1670092 102.79980286 95.1670092 104.76647949 95.15681458 C116.89006443 95.09594497 129.01361828 95.05100113 141.13732147 95.02156544 C147.36993285 95.00592343 153.60242067 94.9847116 159.83496094 94.95068359 C165.8520275 94.91803838 171.86897535 94.90013791 177.88612366 94.89237022 C180.17938607 94.88683603 182.47264214 94.8760291 184.76585388 94.85981178 C187.98304176 94.83796931 191.19974185 94.83503794 194.41699219 94.83642578 C195.36070679 94.82563995 196.30442139 94.81485413 197.2767334 94.80374146 C203.7944751 94.83407669 209.77419158 95.53763279 214.93066406 99.9309082 C215.38570312 100.52774414 215.84074219 101.12458008 216.30957031 101.73950195 C217.01919922 102.63862305 217.01919922 102.63862305 217.74316406 103.5559082 C220.21936732 107.1117018 220.01620076 109.7873835 220.04907227 114.10180664 C220.05564346 114.81422516 220.06221466 115.52664368 220.06898499 116.26065063 C220.08872927 118.62339378 220.10038415 120.98607328 220.11035156 123.34887695 C220.11442709 124.15596352 220.11850262 124.96305008 220.12270164 125.79459381 C220.14356902 130.06789393 220.1578668 134.34116189 220.16723633 138.61450195 C220.17829127 143.02410694 220.21267828 147.43320596 220.25240803 151.84263229 C220.27858367 155.23647994 220.28692907 158.63020733 220.29051781 162.02414703 C220.29538278 163.64921733 220.30699431 165.27428228 220.3255558 166.89925385 C220.34996447 169.17811337 220.3489796 171.45566829 220.34204102 173.73461914 C220.34790726 175.02986511 220.3537735 176.32511108 220.3598175 177.65960693 C219.63987714 182.85146597 217.23686237 185.88404106 213.49707031 189.42700195 C207.44679632 193.46051795 201.66509855 193.45714453 194.64404297 193.40405273 C193.62879547 193.40434479 192.61354797 193.40463684 191.5675354 193.40493774 C188.22364653 193.40354835 184.87998259 193.38800534 181.53613281 193.37231445 C179.21300376 193.36858294 176.88987313 193.36573662 174.56674194 193.36373901 C168.4609948 193.35611347 162.35534324 193.33647415 156.24963379 193.31433105 C150.01571953 193.29384944 143.78178979 193.28473234 137.54785156 193.2746582 C125.32254922 193.25322732 113.09731772 193.21910432 100.87207031 193.17700195 C100.88206306 194.65372375 100.88206306 194.65372375 100.89225769 196.16027832 C100.95319086 205.45835385 100.99810144 214.75638862 101.02750683 224.05461884 C101.04313288 228.83443045 101.06431507 233.6140803 101.09838867 238.39379883 C101.13109151 243.01035645 101.14894633 247.6267589 101.15670204 252.24342346 C101.16222598 254.00080303 101.17301281 255.75817453 101.18926048 257.51548767 C101.21118033 259.98552508 101.21403122 262.45492911 101.21264648 264.92504883 C101.22343231 265.6443457 101.23421814 266.36364258 101.24533081 267.10473633 C101.20976716 273.00439375 100.04910406 278.62177526 96.11816406 283.2355957 C95.52132812 283.69063477 94.92449219 284.14567383 94.30957031 284.61450195 C93.71015625 285.08758789 93.11074219 285.56067383 92.49316406 286.0480957 C88.48323444 288.84055272 84.46281924 288.33990222 79.74414062 288.35400391 C78.79763641 288.3605751 77.8511322 288.3671463 76.87594604 288.37391663 C73.73402838 288.39367652 70.59215859 288.40531858 67.45019531 288.4152832 C65.84239323 288.42139649 65.84239323 288.42139649 64.20211029 288.42763329 C58.52829683 288.44850609 52.85450764 288.46280224 47.18066406 288.47216797 C41.31829616 288.48323134 35.45630794 288.51762723 29.59407425 288.55733967 C25.08847343 288.58347986 20.58296338 288.59185754 16.0772934 288.59544945 C13.91634305 288.60032257 11.75539696 288.61195712 9.59452057 288.63048744 C6.56856691 288.65482178 3.54359957 288.65392399 0.51757812 288.64697266 C-0.81990982 288.66618774 -0.81990982 288.66618774 -2.18441772 288.68579102 C-7.66462149 288.63994033 -10.78121781 287.82767941 -15.12792969 284.17700195 C-19.46821653 279.25018986 -20.25509363 276.7934933 -20.30493164 270.25219727 C-20.31150284 269.53977875 -20.31807404 268.82736023 -20.32484436 268.09335327 C-20.34458864 265.73061012 -20.35624352 263.36793063 -20.36621094 261.00512695 C-20.37028646 260.19804039 -20.37436199 259.39095383 -20.37856102 258.5594101 C-20.3994284 254.28610998 -20.41372617 250.01284202 -20.4230957 245.73950195 C-20.43415065 241.32989697 -20.46853766 236.92079794 -20.5082674 232.51137161 C-20.53444304 229.11752397 -20.54278845 225.72379658 -20.54637718 222.32985687 C-20.55124215 220.70478658 -20.56285369 219.07972163 -20.58141518 217.45475006 C-20.60582384 215.17589054 -20.60483898 212.89833562 -20.59790039 210.61938477 C-20.60376663 209.32413879 -20.60963287 208.02889282 -20.61567688 206.69439697 C-19.89240241 201.47849399 -17.49508733 198.43899362 -13.69042969 194.92700195 C-7.81967887 190.91770871 -2.83354842 190.89838667 4.07836914 190.94995117 C5.6156517 190.94951309 5.6156517 190.94951309 7.18399048 190.94906616 C10.5657808 190.95045762 13.94734981 190.96601038 17.32910156 190.98168945 C19.67608012 190.98542023 22.02306023 190.9882669 24.37004089 190.99026489 C30.54320587 190.99789621 36.71627654 191.01754051 42.8894043 191.03967285 C50.29832765 191.06374172 57.70728256 191.07291464 65.11623383 191.08457947 C76.36824489 191.10396508 87.62004907 191.14229135 98.87207031 191.17700195 C98.87207031 160.15700195 98.87207031 129.13700195 98.87207031 97.17700195 C91.38519531 97.2234082 83.89832031 97.26981445 76.18457031 97.31762695 C71.43585849 97.33806989 66.68720108 97.35732605 61.93847656 97.37231445 C54.40434473 97.39620728 46.87040772 97.42444493 39.33642578 97.47875977 C33.26099515 97.52228436 27.18577351 97.54615337 21.11019897 97.55651093 C18.79459342 97.56389034 16.47899904 97.5783006 14.16348267 97.59992218 C10.91505391 97.6290432 7.66748402 97.6329542 4.41894531 97.63110352 C3.46587997 97.64548462 2.51281464 97.65986572 1.53086853 97.67468262 C-5.13243325 97.63372131 -10.77568792 96.43926886 -15.68804932 91.65875626 C-19.72087313 86.95434987 -20.25837517 84.36278757 -20.30493164 78.25219727 C-20.31150284 77.53977875 -20.31807404 76.82736023 -20.32484436 76.09335327 C-20.34458864 73.73061012 -20.35624352 71.36793063 -20.36621094 69.00512695 C-20.37028646 68.19804039 -20.37436199 67.39095383 -20.37856102 66.5594101 C-20.3994284 62.28610998 -20.41372617 58.01284202 -20.4230957 53.73950195 C-20.43415065 49.32989697 -20.46853766 44.92079794 -20.5082674 40.51137161 C-20.53444304 37.11752397 -20.54278845 33.72379658 -20.54637718 30.32985687 C-20.55124215 28.70478658 -20.56285369 27.07972163 -20.58141518 25.45475006 C-20.60582384 23.17589054 -20.60483898 20.89833562 -20.59790039 18.61938477 C-20.60376663 17.32413879 -20.60963287 16.02889282 -20.61567688 14.69439697 C-19.87968599 9.38678938 -17.45639181 6.34731382 -13.50292969 2.86450195 C-9.06583708 -0.28816911 -5.29228507 0.0158159 0 0 Z " fill="#F16106" transform="translate(60.1279296875,15.822998046875)"/>
</svg>
